<svg xmlns="http://www.w3.org/2000/svg" width="320" height="320" fill="none">
  <g clip-path="url(#a)">
    <rect width="320" height="320" fill="#fff" rx="56"></rect>
    <g clip-path="url(#b)">
      <path fill="#2B0411" d="M320 0H0v320h320V0Z"></path>
      <path fill="#EB802B" d="m254.523 19.799-1.003-.002H247.755c-1.755-.002-3.51-.002-5.265-.002h-7.463c-5.054-.003-10.109-.003-15.163-.003h-2.041l-8.977-.001h-3.697l-.413-.001-23.41-.002h-7.477c-9.302 0-18.604 0-27.906-.003l-7.03-.002h-.437l-13.346-.002H111.393l-13.042-.003c-4.38-.002-8.76-.002-13.14 0h-2.178c-1.99 0-3.98 0-5.971-.002h-8.164c-.9-.002-1.8-.001-2.7 0h-.966c-5.34-.015-5.34-.015-7.132.581v.357l-.335.014c-1.354.087-2.598.378-3.897.758-.299.087-.598.172-.897.257-2.172.612-4.15 1.28-6.133 2.364-.501.253-1.005.5-1.508.748-.69.34-1.37.686-2.035 1.072-.454.258-.776.42-1.284.502v.357l-.362.116c-.708.32-1.28.763-1.895 1.234l-.384.292c-3.291 2.512-6.419 5.27-8.979 8.536l-.434.54a36.532 36.532 0 0 0-2.348 3.31l-.233.368c-.543.879-.543.879-.638 1.323-.123.43-.316.585-.637.888-.184.3-.184.3-.347.627l-.183.366-.186.38c-.06.122-.122.243-.185.369-.412.832-.746 1.673-1.066 2.544a32.77 32.77 0 0 1-.358.758c-.871 1.941-1.164 4.168-1.626 6.24l-.246 1.1-.146.652c-.12.54-.12.54-.306 1.071-.026.316-.044.633-.056.95l-.023.557-.021.58-.024.586-.054 1.434h-.358c-.02 30.14-.02 30.14-.03 56.226v.841l-.006 17.646-.003 8.864v1.337c-.003 6.861-.005 13.722-.01 20.584v.446l-.005 7.132c-.005 6.85-.01 13.7-.011 20.549v.427l-.002 9.284v4.148c-.002 4.387-.005 8.774-.009 13.16-.004 4.421-.006 8.842-.005 13.263v2.199c0 2.009-.002 4.018-.005 6.027-.003 1.751-.003 3.501-.001 5.252.001.997.001 1.993-.002 2.99a419.82 419.82 0 0 0 0 2.726c0 .325 0 .65-.002.975a27.019 27.019 0 0 0 .627 5.942c.191.897.321 1.798.447 2.705.15.994.315 1.861.787 2.76.27.564.453 1.154.643 1.749.283.872.588 1.717.98 2.546.183.401.34.806.495 1.218.408 1.022.919 1.967 1.464 2.922l.308.54c2.327 4.022 5.228 8.134 8.823 11.134.248.211.49.429.727.652 7.456 7.015 18.38 11.123 28.572 11.101l.545.001 1.132-.001c.573-.001 1.146 0 1.72.001l1.106-.001.512.001c1.51-.005 2.965-.119 4.435-.468a28 28 0 0 1 1.22-.246c3.214-.592 6.142-1.567 9.101-2.949l.442-.202c.912-.427 1.721-.885 2.508-1.517v-.357l.313-.057c3.91-1.18 7.83-7.302 9.698-10.657.18-.416.359-.833.536-1.25.225-.461.46-.917.693-1.373a43.95 43.95 0 0 0 1.631-3.627l.188-.441c.764-1.815 1.221-3.728 1.689-5.636.24-.972.513-1.933.8-2.893.533-1.953.859-3.887 1.078-5.896l.091-.808.137-1.217c.109-.977.229-1.952.352-2.927.306-2.436.539-4.873.671-7.325l.038-.653a92.6 92.6 0 0 0 .074-1.97l.032-.61c.02-1.369.02-1.369-.428-1.969-.366-.325-.74-.598-1.146-.869a55.72 55.72 0 0 1-.606-.483l-.59-.455a77.844 77.844 0 0 1-2.806-2.292 62.581 62.581 0 0 0-1.719-1.413 85.135 85.135 0 0 1-4.882-4.201 44.512 44.512 0 0 0-1.163-1.033c-1.874-1.627-3.654-3.358-5.396-5.123a346.02 346.02 0 0 0-1.641-1.633l-.84-.834-.42-.416a41.152 41.152 0 0 1-2.181-2.328c-.403-.465-.823-.913-1.242-1.363a58.931 58.931 0 0 1-2.615-3.069l-.56-.683c-4.705-5.734-8.48-11.886-11.954-18.424l-.188-.342c-1.125-2.117-1.815-4.512-2.577-6.779l-.283-.829c-.527-1.53-.962-2.983-1.165-4.597a4.574 4.574 0 0 0-.344-1.18c-.406-.976-.481-2.032-.606-3.073-.043-.361-.089-.722-.135-1.083-.303-2.422-.44-4.834-.484-7.274-.072-3.732-.31-7.447-.573-11.171-.099-1.396-.194-2.792-.289-4.188l-.073-1.075c-.306-4.456-.576-8.914-.842-13.373l-.106-1.774-.071-1.197a139.533 139.533 0 0 0-.27-3.731 50.744 50.744 0 0 1-.115-2.091l-.039-.913-.02-.481c-.12-2.876-.272-5.748-.455-8.621a366.346 366.346 0 0 1-.545-11.997l-.02-.631-.035-1.161a45.571 45.571 0 0 0-.194-2.99c-.09-1.028-.134-2.059-.18-3.09l-.018-.386c-.045-1.02-.087-2.04-.127-3.06l-.018-.468c-.271-7.008-.294-14.016-.294-21.028l-.002-2.134c-.027-8.934-.027-8.934.415-17.855l.044-.58c.074-.919.158-1.835.259-2.75.045-.413.086-.826.128-1.239a53.28 53.28 0 0 1 .82-5.252l.096-.47c.717-3.428 1.742-6.029 4.693-8.093 2.31-1.45 4.916-1.814 7.58-1.236 2.997.859 4.931 3.093 6.938 5.335l.339.378c.307.347.61.698.913 1.05l.228.266c2.233 2.59 4.442 5.196 6.574 7.87.226.282.452.563.68.844 1.023 1.261 1.993 2.56 2.964 3.86.272.364.545.725.82 1.087a136.416 136.416 0 0 1 2.934 4.021c.646.922 1.305 1.834 1.967 2.744a128.592 128.592 0 0 1 2.358 3.36 110.197 110.197 0 0 0 2.639 3.708c.461.623.912 1.252 1.36 1.883a272.45 272.45 0 0 0 2.589 3.56c.29.392.577.785.865 1.18a206.242 206.242 0 0 0 4.131 5.436c.407.52.808 1.042 1.209 1.565a345.252 345.252 0 0 0 2.58 3.302l.727.927c1.872 2.394 3.803 4.739 5.737 7.082.731.885 1.458 1.774 2.185 2.662l.374.456.386.471.4.479c.353.429.679.873 1.004 1.324l.299.399c.194.26.384.525.568.792.66.867.66.867 1.323.96.873-.065 1.649-.312 2.453-.644.576-.217 1.168-.303 1.774-.397l.715-.118.409-.067c.607-.104 1.212-.22 1.818-.335 1.562-.296 3.131-.553 4.701-.809 3.231-.525 3.231-.525 4.705-.858 2.184-.492 4.395-.586 6.624-.7.744-.04 1.484-.093 2.226-.16 8.412-.74 17.295-.568 25.67.516.807.102 1.604.147 2.417.176 2.363.101 4.704.6 7.028 1.015l.47.083c1.085.191 2.164.4 3.238.644l.44.1c.28.064.559.13.838.197.738.171 1.401.261 2.165.226v.357l.619.111.8.146.409.073c.66.071.66.071 1.211.385.401.074.401.074.894 0 .351-.329.624-.63.916-1.005l.257-.316c.268-.331.531-.665.793-1.001l.248-.315c.323-.411.646-.823.967-1.236a66.093 66.093 0 0 1 2.134-2.562 66.385 66.385 0 0 0 1.804-2.183c.401-.505.808-1.005 1.217-1.505 1.57-1.922 3.104-3.87 4.614-5.84.444-.577.895-1.149 1.352-1.716 2.573-3.198 4.998-6.518 7.428-9.826l.645-.876c.888-1.208 1.745-2.438 2.604-3.666a233.8 233.8 0 0 1 1.837-2.596c.712-.991 1.412-1.99 2.111-2.991a290.986 290.986 0 0 1 3.069-4.3c.413-.568.822-1.14 1.229-1.712a173.276 173.276 0 0 1 3.244-4.39l.232-.306a152.387 152.387 0 0 1 3.613-4.547l.703-.862c.792-.972 1.596-1.932 2.409-2.886a90.125 90.125 0 0 0 1.524-1.845 45.587 45.587 0 0 1 2.165-2.439 30.587 30.587 0 0 0 1.633-1.903c1.86-2.293 4.253-3.899 7.207-4.32 2.821-.21 5.378.573 7.564 2.39 1.338 1.259 1.927 2.467 2.451 4.2.175.554.175.554.354.732.055.263.102.528.145.793.112.645.235 1.285.382 1.923l.093.405c.061.26.122.52.185.779.524 2.261.689 4.56.815 6.87l.064 1.114.056 1.003c.034.493.079.977.134 1.467.116 1.151.155 2.303.191 3.459l.023.71c.077 2.515.086 5.03.087 7.547l.001.742c.002 1.3.002 2.602.002 3.902 0 1.046.001 2.092.004 3.138.017 7.213-.098 14.41-.372 21.619l-.062 1.685c-.069 1.863-.144 3.725-.223 5.587l-.068 1.638-.067 1.63-.046 1.099a154.254 154.254 0 0 1-.233 4.078 52.975 52.975 0 0 0-.089 2.147 213 213 0 0 1-.02.799l-.009.407c-.017.712-.036 1.423-.056 2.135l-.011.417c-.052 1.878-.135 3.747-.314 5.619-.47 4.947-.772 9.905-1.089 14.864l-.237 3.688c-.143 2.201-.284 4.402-.424 6.603l-.206 3.202c-.161 2.475-.312 4.945-.366 7.425-.01.469-.022.938-.034 1.407l-.013.595c-.022.577-.022.577-.118 1.147-.122.903-.146 1.801-.175 2.711l-.042 1.202-.062 1.875c-.095 3.177-.095 3.177-.528 6.319-.06.387-.12.774-.178 1.161l-.09.575c-.061.403-.121.807-.179 1.21l-.089.615-.078.551c-.106.557-.277 1.066-.458 1.603-.059.3-.111.601-.157.904-.169.995-.456 1.932-.772 2.89-.144.491-.144.491-.144 1.027h-.357l-.093.334a17.621 17.621 0 0 1-.973 2.637c-.277.629-.496 1.276-.717 1.926-.195.489-.449.902-.72 1.353-.123.287-.245.575-.365.863-2.818 6.359-6.848 12.453-11.361 17.731-.389.463-.759.935-1.127 1.415-1.077 1.401-2.254 2.682-3.473 3.96-.453.479-.896.967-1.339 1.455a58.019 58.019 0 0 1-2.17 2.239c-.352.358-.678.727-1.003 1.109-.514.598-1.068 1.104-1.669 1.612-.412.362-.796.744-1.18 1.134a29.746 29.746 0 0 1-1.805 1.674c-.58.512-1.14 1.043-1.704 1.574-1.728 1.621-3.529 3.146-5.371 4.638-.582.48-1.153.973-1.724 1.467a74.718 74.718 0 0 1-2.558 2.109l-.31.25c-.5.398-.988.747-1.554 1.047-.646.373-1.062.659-1.511 1.259-.264 1.053-.135 2.154-.042 3.224.044.542.067 1.081.084 1.624.023.684.047 1.367.081 2.05l.019.418c.037.362.037.362.216.898.049.387.091.775.128 1.163l.069.708.071.752.073.758a92.89 92.89 0 0 1 .336 4.564c.038.448.038.448.217.626.055.243.101.488.142.733l.082.471.089.515c1.067 5.969 2.54 12.001 5.4 17.391.189.36.371.724.553 1.088 1.556 3.087 3.537 5.845 5.89 8.374l.462.499c4.245 4.412 10.066 6.909 15.985 8.072l.436.087c7.748 1.514 16.433.988 23.868-1.68.549-.202.549-.202 1.141-.351 1.41-.426 2.692-1.122 3.985-1.817.77-.413 1.529-.819 2.334-1.16 4.978-2.158 9.896-6.899 13.108-11.15l.414-.539a47.146 47.146 0 0 0 2.267-3.211l.333-.515c1.865-2.944 3.333-6.143 4.469-9.435.143-.412.299-.819.463-1.223.388-1.031.591-2.104.813-3.18l.134-.611c.981-4.703 1.018-9.373 1.009-14.154-.001-.994.001-1.989.002-2.984.002-1.739.003-3.479.002-5.219-.002-2.465-.001-4.931.001-7.396.004-4.877.004-9.754.003-14.631V216.621c-.001-2.968 0-5.936.001-8.904v-1.22l.001-3.273c.002-7.609.002-15.218.001-22.828v-.434l-.001-4.793v-2.186a42531.866 42531.866 0 0 1 .006-34.64l.001-.434.003-13.245v-.42l-.001-9.139v-4.083c-.001-4.31.001-8.62.003-12.93.003-4.464.003-8.929 0-13.393-.002-2.57-.002-5.14.001-7.71.002-1.721.001-3.442-.001-5.162-.002-.978-.002-1.956 0-2.933.009-3.42.003-6.815-.41-10.213l-.084-.69c-.217-1.577-.593-3.07-1.028-4.598a182.58 182.58 0 0 1-.273-1.013c-.401-1.455-.792-2.872-1.467-4.229a18.766 18.766 0 0 1-.598-1.424c-1.661-4.33-4.395-8.163-7.435-11.633a68.702 68.702 0 0 1-.585-.68c-1.46-1.71-3.076-3.2-4.838-4.593l-.389-.329c-1.494-1.251-3.148-2.285-4.776-3.352-.305-.2-.609-.402-.913-.604h-.715v-.357c-.461-.24-.923-.478-1.386-.715l-.395-.206c-.127-.065-.253-.13-.384-.195l-.352-.182c-.343-.131-.343-.131-1.058-.131v-.357l-1.252-.179v-.357c-5.283-1.938-5.283-1.938-7.151-1.786v-.357l-1.854-.346-.523-.098-.521-.096c-.155-.03-.311-.058-.471-.088-1.871-.285-3.728-.29-5.616-.287Z"></path>
      <path fill="#E04D27" d="M245.989 74.821c-.596.199-.673.3-1.022.793l-.279.39-.297.425-.312.439c-.318.448-.634.897-.95 1.346l-.542.763a612.9 612.9 0 0 0-2.572 3.657 198.03 198.03 0 0 1-2.622 3.684 174.18 174.18 0 0 0-1.444 2.005l-1.11 1.558a308.408 308.408 0 0 1-5.108 6.953 247.34 247.34 0 0 1-4.177 5.458l-.819 1.048a223.09 223.09 0 0 1-2.957 3.691c-.801.982-1.584 1.976-2.352 2.984a65.676 65.676 0 0 1-2.161 2.638 59.518 59.518 0 0 0-1.734 2.146 65.041 65.041 0 0 1-2.489 2.986 99.128 99.128 0 0 0-2.45 2.929 164.598 164.598 0 0 1-3.509 4.179c-.216.252-.427.508-.637.764-.909 1.091-1.919 1.747-3.183 2.379v.357l-.637.067a7.323 7.323 0 0 0-1.391.291c-2.533.689-4.818-.141-7.229-.897-5.718-1.745-11.641-2.934-17.559-3.747l-.586-.083a85.827 85.827 0 0 0-6.983-.667c-2.798-.168-5.592-.2-8.395-.189l-1.17.003c-3.772.006-7.532.052-11.291.4l-.455.041c-.865.08-1.724.19-2.584.317l-.545.079c-.838.123-1.675.247-2.513.373-1.124.17-2.248.324-3.377.452-.923.111-1.777.285-2.665.551-.733.201-1.474.347-2.218.498a39.582 39.582 0 0 0-3.65.916c-.44.125-.867.228-1.314.32-1.306.283-2.572.72-3.844 1.126-2.979.935-5.769.996-8.624-.362-2.119-1.109-3.483-2.845-4.966-4.68a82.07 82.07 0 0 0-1.457-1.718 126.017 126.017 0 0 1-2.586-3.11 105.104 105.104 0 0 0-1.838-2.213 148.171 148.171 0 0 1-2.405-2.906c-.72-.889-1.447-1.771-2.176-2.652a133.75 133.75 0 0 1-2.46-3.06 131.364 131.364 0 0 0-1.92-2.387 79.012 79.012 0 0 1-2.348-3.015 89.5 89.5 0 0 0-1.384-1.784 149.809 149.809 0 0 1-2.592-3.393l-1.073-1.428-.55-.733-.967-1.285a206.547 206.547 0 0 1-3.886-5.348 242.328 242.328 0 0 0-2.027-2.824 125.976 125.976 0 0 1-2.134-3.025 167.321 167.321 0 0 0-3.02-4.247l-.86-1.188a3409.2 3409.2 0 0 0-.534-.736l-.248-.345c-.571-.785-.571-.785-.97-.984-.212 11.05.59 22.131 1.228 33.157l.123 2.128.025.432c.04.717.082 1.433.123 2.15l.049.845.024.418c.046.797.092 1.594.14 2.391.135 2.309.264 4.617.353 6.927.132 3.471.132 3.471.245 5.093a44 44 0 0 1 .045.815c.12 2.565.12 2.565 1.018 3.472.242.195.488.384.74.565.243.211.485.422.726.636l.358.308c.337.299.655.61.971.931a27.178 27.178 0 0 0 1.645 1.515c.502.44.993.891 1.484 1.342a94.5 94.5 0 0 0 2.148 1.923c.41.358.812.725 1.215 1.091a45.03 45.03 0 0 0 1.9 1.618c.68.549 1.333 1.116 1.977 1.708a50.282 50.282 0 0 0 2.424 2.071c.589.48 1.167.972 1.743 1.467l.318.273.967.832c2.37 2.04 2.37 2.04 3.475 2.935.903.732 1.782 1.491 2.659 2.254.722.627 1.448 1.249 2.179 1.864.951.8 1.892 1.611 2.831 2.426.77.668 1.544 1.332 2.32 1.994.717.611 1.426 1.23 2.123 1.864.61.554 1.235 1.079 1.877 1.596a21.027 21.027 0 0 1 1.906 1.735c.3.301.61.577.932.854.813.699 1.593 1.431 2.377 2.163a52.672 52.672 0 0 0 1.668 1.498c.75.645 1.437 1.352 2.128 2.059.369.369.754.711 1.151 1.05.925.805 1.788 1.67 2.654 2.537l.526.525 1.095 1.095 1.393 1.391 1.084 1.082.76.758a43.26 43.26 0 0 1 2.313 2.475c.285.326.586.631.896.934.75.74 1.431 1.532 2.115 2.332l.812.949.282.33a67.511 67.511 0 0 0 1.629 1.835 40.845 40.845 0 0 1 1.98 2.396 85 85 0 0 0 1.618 2.018c2.321 2.816 4.425 5.796 6.491 8.801l.31.45c1.731 2.526 3.321 5.126 4.874 7.764l.594.999.535.909.244.411c.407.7.728 1.36.951 2.145h.358l.123.525c.199.701.533 1.278.898 1.905.235.436.413.869.588 1.331.321.841.745 1.569 1.251 2.311.517-.626.859-1.321 1.211-2.046l.399-.809.209-.426c1.334-2.71 2.718-5.371 4.26-7.969l.292-.498c2.086-3.534 4.382-6.939 6.802-10.252l.515-.708a108.943 108.943 0 0 1 4.299-5.561c.341-.417.674-.84 1.008-1.263a42.077 42.077 0 0 1 1.872-2.154c.411-.462.801-.936 1.189-1.417.809-.997 1.669-1.939 2.543-2.877.323-.349.645-.699.965-1.05l.73-.795c.316-.343.63-.688.942-1.035 1.712-1.884 3.519-3.674 5.322-5.471l1.404-1.403 1.097-1.095.765-.766a43.616 43.616 0 0 1 2.497-2.329 19.79 19.79 0 0 0 1.188-1.148 32.891 32.891 0 0 1 1.959-1.83 85.147 85.147 0 0 0 2.754-2.482c1.099-1.03 2.206-2.024 3.383-2.966a35.175 35.175 0 0 0 1.557-1.383 37.918 37.918 0 0 1 2.056-1.785 37.994 37.994 0 0 0 2.056-1.786 46.344 46.344 0 0 1 2.508-2.154 81.301 81.301 0 0 0 1.85-1.574 269.93 269.93 0 0 1 3.402-2.907l1.447-1.222.29-.245 1.465-1.241.591-.501.293-.248c.611-.516 1.229-1.023 1.852-1.526a53.26 53.26 0 0 0 2.438-2.139 34.55 34.55 0 0 1 1.451-1.221c.971-.783 1.881-1.622 2.794-2.472a57.384 57.384 0 0 1 1.604-1.43c.611-.535 1.209-1.085 1.808-1.633.397-.359.797-.711 1.201-1.061.909-.791 1.779-1.621 2.652-2.451l.382-.361.376-.364c.367-.346.367-.346.78-.604.668-.46.976-.786 1.185-1.584.113-.772.145-1.547.179-2.325a150.385 150.385 0 0 0 .177-3.201c.024-.486.049-.971.075-1.457.091-1.696.174-3.393.248-5.09.043-.972.096-1.943.153-2.915.081-1.396.12-2.792.151-4.19.072-2.924.236-5.842.405-8.761.163-2.838.312-5.676.433-8.516a922.69 922.69 0 0 1 .478-10.069c.026-.561.026-.561.226-1.092.016-.287.021-.575.02-.864v-.53l-.003-.572v-.586c-.001-.619-.004-1.237-.006-1.856l-.002-1.257c-.002-1.029-.005-2.056-.009-3.085ZM195.575 257.857c-.497.24-.966.504-1.433.798l-.416.262-.441.279-.46.291c-.909.577-1.809 1.163-2.702 1.763-1.402.942-2.83 1.842-4.262 2.738l-1.501.942a524.325 524.325 0 0 1-6.824 4.199c-.592.359-1.182.719-1.773 1.079a310.648 310.648 0 0 1-6.524 3.89c-.877.506-1.748 1.019-2.611 1.548-3.05 1.863-5.66 2.99-9.287 2.144-.713-.189-.713-.189-1.274-.647-.348-.113-.348-.113-.737-.201l-.693-.156v-.357c-.279-.206-.279-.206-.678-.436l-.457-.267-.508-.291-.528-.307c-.382-.223-.765-.444-1.149-.666a735.972 735.972 0 0 1-3.194-1.862l-.334-.195a343.037 343.037 0 0 1-6.381-3.834l-1.168-.715a450.8 450.8 0 0 1-6.453-4.016c-.445-.282-.891-.563-1.337-.843a172.361 172.361 0 0 1-4.324-2.799l-.333-.224c-.543-.365-1.085-.732-1.626-1.101l-.594-.401-.528-.359c-.442-.256-.442-.256-.978-.256-.336 1.958-.611 3.905-.762 5.887a9.149 9.149 0 0 1-.489 2.327c-.079.512-.122 1.025-.168 1.541-.145 1.461-.348 2.9-.912 4.266a5.937 5.937 0 0 0-.328 1.314c-.391 2.26-1.106 4.451-1.81 6.629l-.133.416c-.137.428-.276.854-.415 1.281l-.126.395a14.868 14.868 0 0 1-.944 2.217c-.324.638-.575 1.308-.841 1.971-.218.496-.478.937-.759 1.399-.333.751-.588 1.508-.715 2.321h-.358c-.715 1.161-.715 1.161-.715 1.965h-.357l-.157.524c-.137.566-.137.566-.558.726-.165.334-.329.669-.491 1.005-.417.785-.955 1.49-1.476 2.209-.228.316-.455.632-.681.949l-.306.422c-.264.415-.264.415-.622 1.308h99.754c-.172-.862-.269-1.081-.782-1.73a33.065 33.065 0 0 1-1.843-2.757l-.245-.4a77.073 77.073 0 0 1-1.599-2.792h-.357l-.086-.295c-.28-.903-.63-1.691-1.116-2.502-.296-.54-.53-1.099-.765-1.667l-.215-.518c-.254-.612-.506-1.224-.757-1.837l-.259-.626a48.233 48.233 0 0 1-1.303-3.534 19.216 19.216 0 0 0-.416-1.142c-.342-.886-.577-1.807-.828-2.722-.155-.514-.155-.514-.334-.693a59.52 59.52 0 0 1-.307-1.677 21.851 21.851 0 0 0-.487-2.117c-.303-1.084-.519-2.176-.725-3.282l-.117-.622-.229-1.222a207.9 207.9 0 0 0-.253-1.332c-.47-2.519-.772-5.065-1.1-7.605Z"></path>
      <path fill="#EA802B" d="M74.19 75.536h-.179c-.04 6.412-.035 12.804.324 19.208l.11 2.03c.259 4.883.531 9.767.813 14.65l.074 1.28.211 3.637c.135 2.309.265 4.617.353 6.928.133 3.471.133 3.471.246 5.093.017.271.032.543.045.815.12 2.565.12 2.565 1.018 3.472.241.195.488.384.739.565.244.211.486.422.726.636l.358.308c.338.299.656.61.972.931a27.176 27.176 0 0 0 1.644 1.515c.502.44.994.891 1.484 1.342a94.285 94.285 0 0 0 2.15 1.923c.409.358.81.725 1.213 1.091a45.03 45.03 0 0 0 1.9 1.618c.68.549 1.334 1.116 1.978 1.708a50.234 50.234 0 0 0 2.424 2.071c.589.48 1.167.972 1.743 1.467l.318.273.967.832c2.37 2.04 2.37 2.04 3.475 2.935.903.732 1.782 1.491 2.659 2.254.722.627 1.447 1.249 2.179 1.864.951.8 1.892 1.611 2.83 2.426.771.668 1.545 1.332 2.321 1.994.717.611 1.425 1.23 2.123 1.864a40.834 40.834 0 0 0 1.877 1.596 21.027 21.027 0 0 1 1.906 1.735c.3.301.61.577.932.854.812.699 1.593 1.431 2.377 2.163a52.637 52.637 0 0 0 1.667 1.498c.751.645 1.438 1.352 2.129 2.059.369.369.753.711 1.151 1.05.925.805 1.788 1.67 2.654 2.537l.526.525 1.095 1.095 1.393 1.391 1.084 1.082.76.758c.8.803 1.578 1.612 2.312 2.475.286.326.587.631.896.934.751.74 1.431 1.532 2.116 2.332l.812.949.282.33a69.217 69.217 0 0 0 1.628 1.835c.7.771 1.343 1.575 1.981 2.396a85 85 0 0 0 1.618 2.018c2.32 2.816 4.425 5.796 6.491 8.801l.31.45c1.731 2.526 3.32 5.126 4.874 7.764l.594.999.535.909.244.411c.407.7.727 1.36.951 2.145h.358l.123.525c.198.701.533 1.278.898 1.905.235.436.413.869.588 1.331.321.841.745 1.569 1.251 2.311.516-.626.859-1.321 1.211-2.046l.399-.809.209-.426c1.334-2.71 2.718-5.371 4.259-7.969l.293-.498c2.085-3.534 4.381-6.939 6.802-10.252l.514-.708a110.095 110.095 0 0 1 4.299-5.561c.342-.417.675-.84 1.009-1.263a41.591 41.591 0 0 1 1.872-2.154c.411-.462.801-.936 1.189-1.417.808-.997 1.668-1.939 2.542-2.877.324-.349.645-.699.966-1.05l.73-.795c.316-.343.63-.688.942-1.035 1.711-1.884 3.519-3.674 5.322-5.471l1.404-1.403 1.096-1.095.766-.766a43.933 43.933 0 0 1 2.496-2.329 19.21 19.21 0 0 0 1.188-1.148 33.22 33.22 0 0 1 1.96-1.83 85.113 85.113 0 0 0 2.753-2.482c1.1-1.03 2.206-2.024 3.384-2.966a35.175 35.175 0 0 0 1.557-1.383 37.918 37.918 0 0 1 2.056-1.785 38.38 38.38 0 0 0 2.056-1.786 46.344 46.344 0 0 1 2.508-2.154 81.25 81.25 0 0 0 1.849-1.574 277.306 277.306 0 0 1 3.403-2.907l1.447-1.222.289-.245 1.466-1.241.591-.501.292-.248c.612-.516 1.23-1.023 1.853-1.526a52.707 52.707 0 0 0 2.437-2.139c.473-.423.957-.824 1.451-1.221.972-.783 1.882-1.622 2.794-2.472a60.379 60.379 0 0 1 1.604-1.43c.612-.535 1.21-1.085 1.809-1.633.397-.359.797-.711 1.201-1.061.908-.791 1.779-1.621 2.652-2.451l.382-.361.375-.364c.368-.346.368-.346.781-.604.668-.46.976-.786 1.185-1.584.113-.772.144-1.547.178-2.325l.055-.874c.048-.775.087-1.551.123-2.327.024-.486.049-.971.075-1.457.09-1.696.174-3.393.248-5.09.043-.972.096-1.943.153-2.915.081-1.396.12-2.792.151-4.19.072-2.923.236-5.839.404-8.757.188-3.256.351-6.513.486-9.772l.039-.924.018-.447c.035-.806.088-1.608.157-2.412.145-1.91.099-3.831.091-5.746l-.002-1.205-.009-2.925h-.357c-.171 1.76-.232 3.517-.278 5.283-.04 1.655-.04 1.655-.169 3.304-.185 1.835-.156 3.693-.188 5.535l-.03 1.554-.008.485-.009.447-.006.393c-.009.34-.009.34-.206.678-.037.45-.064.898-.083 1.35l-.021.415-.042.886c-.037.78-.076 1.56-.116 2.339l-.024.471a145.546 145.546 0 0 1-.251 3.791 325.03 325.03 0 0 0-.345 4.933l-.072 1.129a49.073 49.073 0 0 0-.118 3.536c.126 2.051.126 2.051-.557 3.905-.45.406-.883.699-1.41.995l-.894.893-.514.413c-.45.364-.812.763-1.185 1.205-.51.601-1.035.986-1.698 1.418l-.894 1.071c-.354.243-.711.481-1.072.714-.302.294-.6.592-.894.893l-.536.447c-.537.446-.537.446-.956.87-.465.459-.947.865-1.458 1.272a21.101 21.101 0 0 0-1.877 1.697c-.232.211-.467.419-.704.625l-.374.324c-.294.251-.591.5-.888.747-.397.33-.787.664-1.174 1.005-.745.654-1.503 1.293-2.262 1.933-.532.448-1.06.899-1.581 1.359a77.239 77.239 0 0 1-1.777 1.507 92.991 92.991 0 0 0-2.113 1.803c-.502.438-1.01.869-1.518 1.3l-.304.257a98.852 98.852 0 0 1-1.875 1.539 46.391 46.391 0 0 0-2.441 2.164 42.877 42.877 0 0 1-2.365 2.018c-.467.383-.915.78-1.361 1.187-.924.84-1.889 1.626-2.861 2.41a18.79 18.79 0 0 0-1.485 1.306c-.488.487-.989.953-1.498 1.418l-.285.26c-.562.512-1.126 1.02-1.693 1.525a160.088 160.088 0 0 0-2.794 2.578c-.482.452-.961.905-1.426 1.376-.415.409-.84.794-1.276 1.18-1 .898-1.956 1.835-2.907 2.784l-.535.533-1.112 1.109-1.412 1.405c-.368.365-.735.732-1.102 1.098-.256.256-.513.51-.77.765a29.787 29.787 0 0 0-2.508 2.829c-.362.46-.761.861-1.186 1.263-.874.829-1.641 1.712-2.397 2.65-.53.652-1.083 1.283-1.636 1.915a73.823 73.823 0 0 0-2.581 3.114l-.562.71a145.744 145.744 0 0 0-4.265 5.718l-.31.434c-2.108 2.951-4.029 5.992-5.88 9.109l-.192.323c-1.484 2.502-1.484 2.502-1.484 3.17h-.357l-1.107 2.134-.375.724c-1.905 3.672-1.905 3.672-2.317 4.731l-.182.463-.131.341h-.358l-.225-.627a21.243 21.243 0 0 0-.993-2.197l-.188-.374a64.162 64.162 0 0 0-1.163-2.182c-.352-.633-.637-1.238-.827-1.942h-.358l-.038-.348c-.201-.776-.577-1.421-.967-2.118l-.263-.472c-3.543-6.286-7.789-12.232-12.365-17.808a92.687 92.687 0 0 1-1.618-2.028 44.657 44.657 0 0 0-2.578-3.038c-.354-.383-.7-.77-1.042-1.163a151.251 151.251 0 0 0-1.808-2.029c-.276-.306-.552-.613-.826-.92a43.313 43.313 0 0 0-2.25-2.365 22.318 22.318 0 0 1-.936-1.034 45.543 45.543 0 0 0-2.174-2.286l-.417-.417-.869-.867c-.44-.438-.879-.878-1.318-1.317a677.18 677.18 0 0 0-1.241-1.24 40.588 40.588 0 0 0-2.238-2.072c-.51-.444-.97-.934-1.436-1.423-.297-.269-.297-.269-.655-.269v-.357c-.263-.262-.263-.262-.627-.565a55.886 55.886 0 0 1-2.211-2.002 141.2 141.2 0 0 0-2.82-2.593c-.468-.419-.93-.844-1.392-1.269a42.605 42.605 0 0 0-1.967-1.685 38.37 38.37 0 0 1-2.067-1.797 46.298 46.298 0 0 0-2.554-2.188 37.493 37.493 0 0 1-1.468-1.294 50.34 50.34 0 0 0-2.425-2.071 97.227 97.227 0 0 1-1.743-1.467l-.318-.273-.967-.832-1.285-1.105a93.187 93.187 0 0 0-2.246-1.875 42.18 42.18 0 0 1-1.832-1.573 53.32 53.32 0 0 0-2.326-1.974 101.584 101.584 0 0 1-3.964-3.417 36.915 36.915 0 0 0-1.788-1.518c-1.085-.876-2.092-1.829-3.107-2.785a51.705 51.705 0 0 0-1.675-1.501c-.495-.434-.98-.881-1.464-1.328l-.295-.272a219.041 219.041 0 0 1-1.627-1.52l-.345-.324c-.221-.208-.442-.417-.661-.627-.763-.717-.763-.717-1.161-.717l-.014-.591a1821.964 1821.964 0 0 0-.075-3.168c-.037-1.607-.08-3.213-.163-4.818l-.035-.678a16.142 16.142 0 0 0-.245-1.715c-.198-1.179-.277-2.346-.333-3.54l-.035-.686c-.032-.617-.063-1.234-.092-1.851a2327.55 2327.55 0 0 1-.265-5.288l-.23-4.595c-.292-5.784-.575-11.57-.837-17.355Z"></path>
      <path fill="#FDFDFD" d="M78.302 159.821c-.038 2.059.066 4.089.219 6.141.228 3.08.388 6.152.444 9.24l.007.384c.007.338.012.675.017 1.013.023.455.083.824.206 1.258.023.35.041.699.056 1.049.077 1.097.317 2.071.653 3.115.15.531.248 1.024.334 1.566.21 1.206.625 2.315 1.058 3.455l.226.616a29.535 29.535 0 0 0 1.549 3.461c.247.51.426 1.019.594 1.56h.357l.13.443c.27.746.622 1.41 1.01 2.101l.238.425c2.188 3.843 4.898 7.401 7.74 10.781l.28.334c2.417 2.859 5.03 5.523 7.675 8.17l.355.357c1.191 1.193 2.38 2.371 3.667 3.46.318.289.634.579.95.871a52.64 52.64 0 0 0 2.446 2.08 81.686 81.686 0 0 1 1.845 1.58 63.43 63.43 0 0 0 2.923 2.404 93.315 93.315 0 0 1 2.001 1.598c1.525 1.25 3.087 2.44 4.673 3.61l.822.608a427.622 427.622 0 0 0 5.793 4.213l.393.281c2.88 2.052 5.828 4.008 8.784 5.949.295.197.583.403.871.609.567.346.892.353 1.539.231.741-.2 1.445-.477 2.156-.764a86.891 86.891 0 0 1 5.207-1.841 19.867 19.867 0 0 0-.503-2.567l-.171-.663c-.191-.656-.457-1.264-.742-1.884a51.225 51.225 0 0 1-.566-1.295c-1.529-3.585-3.182-7.132-5.051-10.554a13.68 13.68 0 0 1-.833-1.787h-.358l-.19-.675c-.368-1.1-.973-2.027-1.598-2.997l-.363-.573c-.9-1.408-1.825-2.797-2.791-4.161-.259-.367-.515-.736-.771-1.105a83.991 83.991 0 0 0-3.349-4.48c-.305-.385-.601-.776-.898-1.168a59.694 59.694 0 0 0-2.484-3.039 68.114 68.114 0 0 1-1.601-1.914 52.16 52.16 0 0 0-2.278-2.583c-.44-.475-.875-.953-1.308-1.435l-.399-.442a95.034 95.034 0 0 1-.728-.823c-1.051-1.195-2.175-2.312-3.31-3.428a38.705 38.705 0 0 1-2.157-2.298 21.144 21.144 0 0 0-2.334-2.283c-.75-.643-1.439-1.342-2.134-2.043-.77-.776-1.539-1.539-2.375-2.245-.585-.509-1.148-1.042-1.714-1.572-.9-.842-1.804-1.677-2.724-2.497-.47-.421-.934-.848-1.399-1.275a42.484 42.484 0 0 0-1.966-1.685 38.82 38.82 0 0 1-2.067-1.797 46.627 46.627 0 0 0-2.554-2.188 37.682 37.682 0 0 1-1.469-1.294 48.475 48.475 0 0 0-2.41-2.057 88.287 88.287 0 0 1-1.88-1.604 100.546 100.546 0 0 0-2.805-2.356c-.702-.576-1.388-1.168-2.075-1.76a103.73 103.73 0 0 0-2.442-2.025 41.76 41.76 0 0 1-1.746-1.55c-.318-.256-.318-.256-.675-.256Z"></path>
      <path fill="#FEFDFD" d="M241.341 159.821c-.973.7-1.865 1.453-2.749 2.26-.617.552-1.259 1.069-1.902 1.589-.603.494-1.194 1-1.785 1.509a94.004 94.004 0 0 1-2.223 1.863 97.166 97.166 0 0 0-2.683 2.279 72.745 72.745 0 0 1-2.021 1.695 49.447 49.447 0 0 0-2.415 2.116 34.55 34.55 0 0 1-1.451 1.221c-.972.783-1.882 1.622-2.795 2.472-.52.485-1.053.953-1.591 1.418-.585.514-1.157 1.044-1.73 1.571-.484.445-.972.884-1.471 1.313-.828.717-1.623 1.471-2.423 2.22a88.535 88.535 0 0 1-1.923 1.753c-.819.73-1.589 1.504-2.36 2.283-.502.505-1.007.995-1.551 1.456-.66.562-1.274 1.164-1.888 1.775l-.287.284a29.798 29.798 0 0 0-1.472 1.586c-.656.757-1.358 1.458-2.073 2.159a40.768 40.768 0 0 0-2.394 2.525c-.405.467-.827.917-1.249 1.37a49.19 49.19 0 0 0-2.178 2.538c-.516.628-1.051 1.237-1.587 1.848a55.275 55.275 0 0 0-2.535 3.119c-.424.561-.855 1.115-1.286 1.669-2.768 3.587-5.272 7.356-7.666 11.201-.161.256-.323.511-.488.765l-.245.38-.219.337c-.247.449-.316.884-.355 1.391h-.357c-2.901 5.219-5.469 10.547-7.316 16.233-.179.686-.179.686-.55 1.267-.007.297-.008.595 0 .893l.321.092c2.114.612 4.183 1.253 6.193 2.157l.413.178.355.16c.846.19 1.567.005 2.291-.439.226-.153.45-.307.673-.464l.37-.252c.396-.271.789-.545 1.183-.819l.823-.565c.677-.465 1.353-.932 2.027-1.401.522-.362 1.046-.721 1.569-1.081a234.356 234.356 0 0 0 9.475-6.899 175.76 175.76 0 0 1 1.558-1.17c1.075-.802 2.127-1.63 3.179-2.461.314-.247.63-.492.946-.737a83.697 83.697 0 0 0 3.477-2.846 66.568 66.568 0 0 1 1.896-1.578 45.875 45.875 0 0 0 2.444-2.157 56.3 56.3 0 0 1 1.56-1.409c2.054-1.787 3.99-3.699 5.917-5.62l.293-.291c1.07-1.065 2.116-2.139 3.093-3.291l.574-.657c1.143-1.31 2.277-2.625 3.359-3.986l.248-.31c4.225-5.309 7.688-11.137 10.076-17.491l.233-.617.211-.58.186-.509c.142-.54.153-1.009.13-1.565h.357l.099-.588.136-.796.064-.384c.1-.582.202-1.151.373-1.717.485-1.631.478-3.221.487-4.907.021-3.475.186-6.927.447-10.391.124-1.661.222-3.3.182-4.967Z"></path>
      <path fill="#EB802B" d="M204.514 290c-8.478-.012-16.955-.024-25.433-.03l-.38-.001-8.175-.005-4.01-.003-.403-.001c-4.313-.003-8.626-.008-12.939-.014-4.431-.007-8.862-.012-13.293-.013l-1.876-.001h-.373c-1.984-.001-3.968-.004-5.952-.008-1.993-.004-3.986-.006-5.979-.005-1.08 0-2.161 0-3.241-.004-.988-.004-1.976-.004-2.964-.001-.359 0-.717-.001-1.076-.003-.485-.003-.97-.002-1.456.001l-.427-.006c-.625.008-.983.044-1.492.42-.34.482-.4.878-.453 1.46h-.357l-.157.524c-.137.566-.137.566-.558.726-.165.334-.329.669-.491 1.005-.417.785-.955 1.49-1.476 2.209-.228.316-.455.632-.681.949l-.306.422c-.264.415-.264.415-.622 1.308h99.754c-.172-.862-.269-1.081-.782-1.73a33.065 33.065 0 0 1-1.843-2.757l-.245-.4a77.073 77.073 0 0 1-1.599-2.792h-.357l-.358-1.25Z"></path>
    </g>
  </g>
  <defs>
    <clipPath id="a">
      <rect width="320" height="320" fill="#fff" rx="56"></rect>
    </clipPath>
    <clipPath id="b">
      <path fill="#fff" d="M320 0H0v320h320z"></path>
    </clipPath>
  </defs>
</svg>